<svg width="592" height="221" viewBox="0 0 592 221" fill="none" xmlns="http://www.w3.org/2000/svg">
<path fill-rule="evenodd" clip-rule="evenodd" d="M165.94 3.60842C166.551 2.37032 166.043 0.871231 164.805 0.260114C163.567 -0.351002 162.068 0.157272 161.457 1.39538L138.696 47.5068C103.407 27.4832 57.7591 32.5076 27.6721 62.5946C-8.45141 98.7181 -8.45141 157.286 27.6721 193.409C63.7956 229.533 122.363 229.533 158.487 193.409C188.666 163.231 193.629 117.395 173.39 82.0617L219.409 59.3475C220.647 58.7363 221.155 57.2373 220.544 55.9991C219.933 54.761 218.434 54.2528 217.196 54.8639L174.997 75.6927C176.521 72.4053 177.209 68.8257 177.06 65.2746L197.197 50.7022C198.315 49.8928 198.566 48.3298 197.757 47.2113C196.947 46.0927 195.384 45.8421 194.266 46.6516L176.138 59.7695C175.331 57.0654 174.005 54.4832 172.16 52.1796L191.354 32.9858C192.33 32.0095 192.33 30.4266 191.354 29.4503C190.378 28.4739 188.795 28.4739 187.818 29.4503L168.625 48.6441C166.321 46.7991 163.739 45.473 161.035 44.6659L174.153 26.5385C174.962 25.4199 174.711 23.857 173.593 23.0475C172.474 22.2381 170.911 22.4887 170.102 23.6072L155.529 43.7446C151.978 43.5954 148.399 44.2829 145.111 45.807L165.94 3.60842ZM166.202 85.61L164.377 86.5105C164.262 86.5673 164.145 86.6144 164.026 86.6522C155.709 90.4976 145.527 88.9917 138.67 82.1345C131.812 75.2774 130.307 65.0954 134.152 56.7779C134.19 56.6593 134.237 56.542 134.294 56.4269L135.149 54.6936C102.858 36.1347 60.9215 40.6589 33.3289 68.2515C0.329639 101.251 0.329639 154.753 33.3289 187.753C66.3282 220.752 119.831 220.752 152.83 187.753C180.515 160.068 184.976 117.944 166.202 85.61ZM142.205 53.8503C149.039 47.0161 160.12 47.0161 166.954 53.8503C173.788 60.6844 173.788 71.7648 166.954 78.599C160.12 85.4332 149.039 85.4332 142.205 78.599C135.371 71.7648 135.371 60.6844 142.205 53.8503Z" fill="black"/>
<path d="M365.951 30.2965H359.263L352.863 13.1125C353.076 14.7979 353.236 16.2912 353.343 17.5925C353.471 18.8725 353.535 20.3979 353.535 22.1685V30.2965H348.863V8.12054H355.391L361.951 25.3365C361.481 22.4139 361.247 19.6619 361.247 17.0805V8.12054H365.951V30.2965Z" fill="black"/>
<path d="M389.761 30.2965L388.609 25.5285H382.145L381.025 30.2965H375.585L382.273 8.12054H388.641L395.329 30.2965H389.761ZM383.041 21.7205H387.713L385.377 11.9285L383.041 21.7205Z" fill="black"/>
<path d="M412.092 7.57654C413.756 7.57654 415.196 7.8112 416.412 8.28054C417.65 8.74987 418.77 9.46454 419.772 10.4245L417.34 13.2725C415.826 12.0352 414.204 11.4165 412.476 11.4165C411.559 11.4165 410.834 11.6085 410.3 11.9925C409.767 12.3552 409.5 12.8885 409.5 13.5925C409.5 14.0832 409.618 14.4885 409.852 14.8085C410.087 15.1072 410.503 15.3952 411.1 15.6725C411.698 15.9499 412.594 16.2805 413.788 16.6645C416.05 17.3899 417.714 18.2859 418.78 19.3525C419.847 20.3979 420.38 21.8912 420.38 23.8325C420.38 25.2192 420.028 26.4459 419.324 27.5125C418.62 28.5579 417.607 29.3792 416.284 29.9765C414.962 30.5525 413.394 30.8405 411.58 30.8405C409.767 30.8405 408.156 30.5525 406.748 29.9765C405.362 29.4005 404.167 28.6325 403.164 27.6725L405.82 24.7605C406.674 25.4859 407.548 26.0299 408.444 26.3925C409.362 26.7552 410.354 26.9365 411.42 26.9365C412.508 26.9365 413.362 26.7019 413.98 26.2325C414.62 25.7419 414.94 25.0699 414.94 24.2165C414.94 23.6619 414.823 23.2032 414.588 22.8405C414.354 22.4565 413.948 22.1152 413.372 21.8165C412.796 21.5179 411.964 21.1979 410.876 20.8565C408.423 20.1099 406.674 19.1925 405.628 18.1045C404.604 17.0165 404.092 15.6405 404.092 13.9765C404.092 12.6965 404.434 11.5765 405.116 10.6165C405.799 9.63521 406.748 8.88854 407.964 8.37654C409.18 7.8432 410.556 7.57654 412.092 7.57654Z" fill="black"/>
<path d="M442.793 30.2965L441.641 25.5285H435.177L434.057 30.2965H428.617L435.305 8.12054H441.673L448.361 30.2965H442.793ZM436.073 21.7205H440.745L438.409 11.9285L436.073 21.7205Z" fill="black"/>
<path d="M243.131 44.4485V70.7445H237.545V44.4485H243.131Z" fill="black"/>
<path d="M273.111 70.7445H265.929L257.569 49.8825C257.797 51.6812 257.974 53.3785 258.101 54.9745C258.253 56.5452 258.329 58.3945 258.329 60.5225V70.7445H253.275V44.4485H260.305L268.817 65.3485C268.31 61.9539 268.057 58.8379 268.057 56.0005V44.4485H273.111V70.7445Z" fill="black"/>
<path d="M300.659 44.4485L300.051 48.8185H293.401V70.7445H287.815V48.8185H280.823V44.4485H300.659Z" fill="black"/>
<path d="M323.77 44.4485L323.162 48.5145H313.662V55.3545H321.946V59.3825H313.662V66.6405H323.846V70.7445H308.076V44.4485H323.77Z" fill="black"/>
<path d="M341.148 60.4465H338.298V70.7445H332.712V44.4485H340.92C344.442 44.4485 347.089 45.1072 348.862 46.4245C350.636 47.7165 351.522 49.6799 351.522 52.3145C351.522 54.0372 351.092 55.4559 350.23 56.5705C349.394 57.6852 348.09 58.6352 346.316 59.4205L353.118 70.7445H346.772L341.148 60.4465ZM338.298 56.4945H341.224C342.719 56.4945 343.846 56.1652 344.606 55.5065C345.366 54.8225 345.746 53.7585 345.746 52.3145C345.746 50.9719 345.341 49.9965 344.53 49.3885C343.745 48.7552 342.504 48.4385 340.806 48.4385H338.298V56.4945Z" fill="black"/>
<path d="M380.45 70.7445H373.268L364.908 49.8825C365.136 51.6812 365.314 53.3785 365.44 54.9745C365.592 56.5452 365.668 58.3945 365.668 60.5225V70.7445H360.614V44.4485H367.644L376.156 65.3485C375.65 61.9539 375.396 58.8379 375.396 56.0005V44.4485H380.45V70.7445Z" fill="black"/>
<path d="M404.465 70.7445L402.983 64.8545H394.737L393.255 70.7445H387.441L395.535 44.4485H402.337L410.393 70.7445H404.465ZM395.801 60.7125H401.919L398.841 48.5905L395.801 60.7125Z" fill="black"/>
<path d="M432.932 44.4485L432.324 48.8185H425.674V70.7445H420.088V48.8185H413.096V44.4485H432.932Z" fill="black"/>
<path d="M445.935 44.4485V70.7445H440.349V44.4485H445.935Z" fill="black"/>
<path d="M466.453 43.8405C468.859 43.8405 470.937 44.3852 472.685 45.4745C474.433 46.5385 475.775 48.0965 476.713 50.1485C477.65 52.2005 478.119 54.6832 478.119 57.5965C478.119 60.4592 477.65 62.9292 476.713 65.0065C475.775 67.0585 474.433 68.6292 472.685 69.7185C470.937 70.8079 468.859 71.3525 466.453 71.3525C464.046 71.3525 461.956 70.8205 460.183 69.7565C458.435 68.6672 457.092 67.0965 456.155 65.0445C455.217 62.9672 454.749 60.4845 454.749 57.5965C454.749 54.7592 455.217 52.3145 456.155 50.2625C457.117 48.1852 458.473 46.6019 460.221 45.5125C461.994 44.3979 464.071 43.8405 466.453 43.8405ZM466.453 48.0205C464.527 48.0205 463.071 48.7805 462.083 50.3005C461.12 51.8205 460.639 54.2525 460.639 57.5965C460.639 60.9405 461.133 63.3725 462.121 64.8925C463.109 66.4125 464.553 67.1725 466.453 67.1725C468.378 67.1725 469.822 66.4252 470.785 64.9305C471.747 63.4105 472.229 60.9659 472.229 57.5965C472.229 54.2272 471.747 51.7952 470.785 50.3005C469.822 48.7805 468.378 48.0205 466.453 48.0205Z" fill="black"/>
<path d="M506.748 70.7445H499.566L491.206 49.8825C491.434 51.6812 491.612 53.3785 491.738 54.9745C491.89 56.5452 491.966 58.3945 491.966 60.5225V70.7445H486.912V44.4485H493.942L502.454 65.3485C501.948 61.9539 501.694 58.8379 501.694 56.0005V44.4485H506.748V70.7445Z" fill="black"/>
<path d="M530.763 70.7445L529.281 64.8545H521.035L519.553 70.7445H513.739L521.833 44.4485H528.635L536.691 70.7445H530.763ZM522.099 60.7125H528.217L525.139 48.5905L522.099 60.7125Z" fill="black"/>
<path d="M549.267 44.4485V66.2605H559.679L559.071 70.7445H543.681V44.4485H549.267Z" fill="black"/>
<path d="M255.022 158.025C255.022 162.12 253.447 164.43 249.562 164.43C245.152 164.43 243.787 161.49 243.787 156.87V139.65H236.122V158.025C236.122 167.37 240.217 172.305 249.667 172.305C259.222 172.305 263.002 167.16 263.002 158.025V145.635C263.002 138.075 262.057 135.45 259.222 131.88C255.967 127.785 249.877 122.745 246.097 117.81C244.522 115.815 244.207 114.765 244.207 111.09V98.28C244.207 94.185 246.097 92.085 249.772 92.085C254.077 92.085 255.232 95.025 255.232 99.33V114.03H262.687V98.28C262.687 88.725 259.222 84 249.877 84C240.637 84 236.122 88.62 236.122 98.28V111.195C236.122 116.97 236.332 119.07 238.957 122.43C242.002 126.315 247.987 131.355 252.397 136.815C254.497 139.44 255.022 140.49 255.022 145.74V158.025Z" fill="black"/>
<path d="M292.672 114.975C292.672 120.33 290.467 122.535 285.847 122.535H280.282V93.03H285.742C290.782 93.03 292.672 95.445 292.672 100.59V114.975ZM280.282 171.36V130.305H285.847C295.927 130.305 300.547 125.685 300.547 114.765V100.59C300.547 89.67 295.822 84.945 285.742 84.945H272.302V171.36H280.282Z" fill="black"/>
<path d="M333.586 171.36L322.351 84.945H313.006L301.141 171.36H308.911L310.801 156.87H323.716L325.606 171.36H333.586ZM311.746 149.52C313.741 134.715 315.631 120.435 317.416 105.21C319.096 120.435 320.986 134.715 322.771 149.52H311.746Z" fill="black"/>
<path d="M358.503 157.605C358.503 162.225 357.033 164.43 353.148 164.43C349.368 164.43 347.478 162.12 347.478 157.605V98.805C347.478 94.29 349.368 92.085 353.148 92.085C357.243 92.085 358.503 94.185 358.503 98.805V114.03H365.748V98.7C365.748 88.935 361.548 84 353.148 84C344.013 84 339.393 88.935 339.393 98.91V157.71C339.393 167.475 344.013 172.305 353.148 172.305C361.968 172.305 365.748 167.58 365.748 157.5V139.65H358.503V157.605Z" fill="black"/>
<path d="M398.466 171.36V163.485H383.031V131.355H393.531V123.375H383.031V93.03H397.941V84.945H375.051V171.36H398.466Z" fill="black"/>
<path d="M453.905 171.36L442.67 84.945H433.325L421.46 171.36H429.23L431.12 156.87H444.035L445.925 171.36H453.905ZM432.065 149.52C434.06 134.715 435.95 120.435 437.735 105.21C439.415 120.435 441.305 134.715 443.09 149.52H432.065Z" fill="black"/>
<path d="M482.251 114.975C482.251 120.33 480.046 122.535 475.426 122.535H469.861V93.03H475.321C480.361 93.03 482.251 95.445 482.251 100.59V114.975ZM469.861 171.36V130.305H475.426C485.506 130.305 490.126 125.685 490.126 114.765V100.59C490.126 89.67 485.401 84.945 475.321 84.945H461.881V171.36H469.861Z" fill="black"/>
<path d="M518.714 114.975C518.714 120.33 516.509 122.535 511.889 122.535H506.324V93.03H511.784C516.824 93.03 518.714 95.445 518.714 100.59V114.975ZM506.324 171.36V130.305H511.889C521.969 130.305 526.589 125.685 526.589 114.765V100.59C526.589 89.67 521.864 84.945 511.784 84.945H498.344V171.36H506.324Z" fill="black"/>
<path d="M553.374 158.025C553.374 162.12 551.799 164.43 547.914 164.43C543.504 164.43 542.139 161.49 542.139 156.87V139.65H534.474V158.025C534.474 167.37 538.569 172.305 548.019 172.305C557.574 172.305 561.354 167.16 561.354 158.025V145.635C561.354 138.075 560.409 135.45 557.574 131.88C554.319 127.785 548.229 122.745 544.449 117.81C542.874 115.815 542.559 114.765 542.559 111.09V98.28C542.559 94.185 544.449 92.085 548.124 92.085C552.429 92.085 553.584 95.025 553.584 99.33V114.03H561.039V98.28C561.039 88.725 557.574 84 548.229 84C538.989 84 534.474 88.62 534.474 98.28V111.195C534.474 116.97 534.684 119.07 537.309 122.43C540.354 126.315 546.339 131.355 550.749 136.815C552.849 139.44 553.374 140.49 553.374 145.74V158.025Z" fill="black"/>
<path d="M248.018 185.294C250.956 185.221 253.814 186.25 256.03 188.179L253.071 191.71C252.367 191.15 251.587 190.691 250.756 190.347C249.975 190.036 249.141 189.882 248.3 189.893C247.465 189.876 246.64 190.072 245.902 190.463C245.163 190.854 244.537 191.427 244.082 192.127C243.075 193.626 242.57 195.93 242.566 199.041C242.562 202.152 243.067 204.43 244.082 205.875C244.553 206.576 245.194 207.146 245.946 207.531C246.698 207.916 247.536 208.102 248.38 208.073C249.282 208.087 250.176 207.907 251.002 207.545C251.899 207.097 252.751 206.562 253.544 205.948L256.319 209.516C255.278 210.55 254.054 211.383 252.709 211.972C251.252 212.619 249.673 212.944 248.079 212.923C245.859 212.976 243.667 212.424 241.737 211.327C239.894 210.213 238.427 208.573 237.525 206.618C236.478 204.241 235.971 201.662 236.039 199.066C235.976 196.504 236.504 193.962 237.58 191.636C238.506 189.685 239.983 188.048 241.829 186.927C243.703 185.825 245.844 185.26 248.018 185.294Z" fill="black"/>
<path d="M289.456 212.254V200.975H281.56V212.254H275.328V185.938H281.56V196.118H289.456V185.938H295.682V212.254H289.456Z" fill="black"/>
<path d="M330.686 212.254L329.323 206.593H321.654L320.322 212.254H313.868L321.801 185.938H329.359L337.292 212.254H330.686ZM322.704 202.074H328.23L325.454 190.457L322.704 202.074Z" fill="black"/>
<path d="M361.662 185.938V207.299H371.915L371.301 212.211H355.466V185.938H361.662Z" fill="black"/>
<path d="M397.341 185.938V207.299H407.588L406.974 212.211H391.115V185.938H397.341Z" fill="black"/>
<path d="M442.929 185.938L442.279 190.384H433.02V196.683H441.106V201.055H433.02V207.772H442.929V212.254H426.794V185.938H442.929Z" fill="black"/>
<path d="M483.262 212.254H475.33L467.735 191.863C467.986 193.865 468.177 195.633 468.306 197.181C468.435 198.728 468.533 200.508 468.533 202.608V212.254H463.007V185.938H470.749L478.535 206.366C477.995 203.119 477.715 199.834 477.7 196.542V185.938H483.281L483.262 212.254Z" fill="black"/>
<path d="M515.767 185.294C518.991 185.236 522.119 186.389 524.535 188.523L521.385 191.827C520.588 191.199 519.705 190.688 518.763 190.31C517.895 189.963 516.966 189.794 516.031 189.813C515.123 189.787 514.221 189.985 513.407 190.389C512.592 190.792 511.889 191.389 511.359 192.127C510.2 193.65 509.619 195.967 509.615 199.078C509.615 202.443 510.057 204.835 510.941 206.255C511.382 206.941 511.998 207.496 512.726 207.863C513.454 208.23 514.266 208.396 515.08 208.343C516.323 208.358 517.55 208.058 518.647 207.471V201.509H515.233L514.619 197.101H524.682V210.124C523.285 211.026 521.762 211.717 520.163 212.174C518.569 212.65 516.915 212.894 515.251 212.899C511.256 212.899 508.244 211.734 506.213 209.405C504.183 207.076 503.172 203.634 503.18 199.078C503.11 196.502 503.668 193.948 504.807 191.636C505.826 189.662 507.396 188.026 509.326 186.927C511.294 185.829 513.514 185.266 515.767 185.294Z" fill="black"/>
<path d="M561.19 185.938L560.576 190.384H551.281V196.683H559.373V201.055H551.281V207.772H561.19V212.254H545.055V185.938H561.19Z" fill="black"/>
<path fill-rule="evenodd" clip-rule="evenodd" d="M570.749 37.95H567.971V27.8025H572.88C573.595 27.8025 574.228 27.94 574.778 28.215C575.337 28.49 575.768 28.8796 576.07 29.3838C576.382 29.888 576.538 30.493 576.538 31.1988C576.538 31.9138 576.377 32.5234 576.056 33.0275C575.777 33.4586 575.404 33.8028 574.937 34.0601L576.813 37.9501H573.774L572.267 34.5538L570.749 34.5538V37.95ZM572.261 32.56H570.749V29.8513H572.275C572.678 29.8513 573.008 29.9613 573.265 30.1813C573.522 30.3921 573.65 30.7313 573.65 31.1988C573.65 31.648 573.522 31.9871 573.265 32.2163C573.008 32.4455 572.674 32.56 572.261 32.56Z" fill="black"/>
<path fill-rule="evenodd" clip-rule="evenodd" d="M567.724 43.1475C569.053 43.7158 570.478 44 572 44C573.522 44 574.947 43.7158 576.276 43.1475C577.605 42.5792 578.774 41.7908 579.782 40.7825C580.791 39.7742 581.579 38.6054 582.147 37.2762C582.716 35.9471 583 34.5217 583 33C583 31.4783 582.716 30.0529 582.147 28.7237C581.579 27.3946 580.791 26.2258 579.782 25.2175C578.774 24.2092 577.605 23.4208 576.276 22.8525C574.947 22.2842 573.522 22 572 22C570.478 22 569.053 22.2842 567.724 22.8525C566.395 23.4208 565.226 24.2092 564.217 25.2175C563.209 26.2258 562.421 27.3946 561.853 28.7237C561.284 30.0529 561 31.4783 561 33C561 34.5217 561.284 35.9471 561.853 37.2762C562.421 38.6054 563.209 39.7742 564.217 40.7825C565.226 41.7908 566.395 42.5792 567.724 43.1475ZM576.042 39.93C574.832 40.645 573.485 41.0025 572 41.0025C570.524 41.0025 569.181 40.645 567.971 39.93C566.761 39.2058 565.794 38.2387 565.07 37.0287C564.355 35.8187 563.998 34.4758 563.998 33C563.998 31.5242 564.355 30.1812 565.07 28.9712C565.794 27.7612 566.761 26.7988 567.971 26.0838C569.181 25.3596 570.524 24.9975 572 24.9975C573.476 24.9975 574.819 25.3596 576.029 26.0838C577.248 26.7988 578.215 27.7612 578.93 28.9712C579.654 30.1812 580.016 31.5242 580.016 33C580.016 34.4758 579.654 35.8187 578.93 37.0287C578.215 38.2387 577.252 39.2058 576.042 39.93Z" fill="black"/>
</svg>
