<svg width="592" height="221" viewBox="0 0 592 221" fill="none" xmlns="http://www.w3.org/2000/svg">
<g clip-path="url(#clip0_9256_70)">
<path fill-rule="evenodd" clip-rule="evenodd" d="M165.94 3.60708C166.551 2.36898 166.043 0.869888 164.805 0.258772C163.567 -0.352345 162.068 0.155929 161.457 1.39403L138.696 47.5055C103.407 27.4818 57.7591 32.5063 27.6721 62.5933C-8.45141 98.7168 -8.45141 157.285 27.6721 193.408C63.7956 229.532 122.363 229.532 158.487 193.408C188.666 163.229 193.629 117.394 173.39 82.0603L219.409 59.3461C220.647 58.735 221.155 57.2359 220.544 55.9978C219.933 54.7597 218.434 54.2514 217.196 54.8625L174.997 75.6914C176.521 72.4039 177.209 68.8243 177.06 65.2733L197.197 50.7009C198.315 49.8914 198.566 48.3285 197.757 47.2099C196.947 46.0914 195.384 45.8408 194.266 46.6502L176.138 59.7682C175.331 57.0641 174.005 54.4819 172.16 52.1783L191.354 32.9844C192.33 32.0081 192.33 30.4252 191.354 29.4489C190.378 28.4726 188.795 28.4726 187.818 29.4489L168.625 48.6427C166.321 46.7977 163.739 45.4717 161.035 44.6646L174.153 26.5371C174.962 25.4186 174.711 23.8556 173.593 23.0462C172.474 22.2367 170.911 22.4873 170.102 23.6059L155.529 43.7432C151.978 43.5941 148.399 44.2816 145.111 45.8056L165.94 3.60708ZM166.202 85.6086L164.377 86.5091C164.262 86.5659 164.145 86.6131 164.026 86.6508C155.709 90.4962 145.527 88.9903 138.67 82.1332C131.812 75.2761 130.307 65.0941 134.152 56.7766C134.19 56.6579 134.237 56.5406 134.294 56.4255L135.149 54.6922C102.858 36.1333 60.9215 40.6575 33.3289 68.2501C0.329639 101.249 0.329639 154.752 33.3289 187.751C66.3282 220.75 119.831 220.75 152.83 187.751C180.515 160.066 184.976 117.943 166.202 85.6086ZM142.205 53.8489C149.039 47.0147 160.12 47.0147 166.954 53.8489C173.788 60.6831 173.788 71.7635 166.954 78.5977C160.12 85.4318 149.039 85.4318 142.205 78.5977C135.371 71.7635 135.371 60.6831 142.205 53.8489Z" fill="black"/>
<path d="M365.951 30.2952H359.263L352.863 13.1112C353.076 14.7965 353.236 16.2899 353.343 17.5912C353.471 18.8712 353.535 20.3965 353.535 22.1672V30.2952H348.863V8.1192H355.391L361.951 25.3352C361.481 22.4125 361.247 19.6605 361.247 17.0792V8.1192H365.951V30.2952Z" fill="#DB240B"/>
<path d="M389.761 30.2952L388.609 25.5272H382.145L381.025 30.2952H375.585L382.273 8.1192H388.641L395.329 30.2952H389.761ZM383.041 21.7192H387.713L385.377 11.9272L383.041 21.7192Z" fill="#DB240B"/>
<path d="M412.092 7.5752C413.756 7.5752 415.196 7.80986 416.412 8.2792C417.65 8.74853 418.77 9.4632 419.772 10.4232L417.34 13.2712C415.826 12.0339 414.204 11.4152 412.476 11.4152C411.559 11.4152 410.834 11.6072 410.3 11.9912C409.767 12.3539 409.5 12.8872 409.5 13.5912C409.5 14.0819 409.618 14.4872 409.852 14.8072C410.087 15.1059 410.503 15.3939 411.1 15.6712C411.698 15.9485 412.594 16.2792 413.788 16.6632C416.05 17.3885 417.714 18.2845 418.78 19.3512C419.847 20.3965 420.38 21.8899 420.38 23.8312C420.38 25.2179 420.028 26.4445 419.324 27.5112C418.62 28.5565 417.607 29.3779 416.284 29.9752C414.962 30.5512 413.394 30.8392 411.58 30.8392C409.767 30.8392 408.156 30.5512 406.748 29.9752C405.362 29.3992 404.167 28.6312 403.164 27.6712L405.82 24.7592C406.674 25.4845 407.548 26.0285 408.444 26.3912C409.362 26.7539 410.354 26.9352 411.42 26.9352C412.508 26.9352 413.362 26.7005 413.98 26.2312C414.62 25.7405 414.94 25.0685 414.94 24.2152C414.94 23.6605 414.823 23.2019 414.588 22.8392C414.354 22.4552 413.948 22.1139 413.372 21.8152C412.796 21.5165 411.964 21.1965 410.876 20.8552C408.423 20.1085 406.674 19.1912 405.628 18.1032C404.604 17.0152 404.092 15.6392 404.092 13.9752C404.092 12.6952 404.434 11.5752 405.116 10.6152C405.799 9.63386 406.748 8.8872 407.964 8.37519C409.18 7.84186 410.556 7.5752 412.092 7.5752Z" fill="#DB240B"/>
<path d="M442.793 30.2952L441.641 25.5272H435.177L434.057 30.2952H428.617L435.305 8.1192H441.673L448.361 30.2952H442.793ZM436.073 21.7192H440.745L438.409 11.9272L436.073 21.7192Z" fill="#DB240B"/>
<path d="M243.131 44.4472V70.7432H237.545V44.4472H243.131Z" fill="black"/>
<path d="M273.111 70.7432H265.929L257.569 49.8812C257.797 51.6798 257.974 53.3772 258.101 54.9732C258.253 56.5438 258.329 58.3932 258.329 60.5212V70.7432H253.275V44.4472H260.305L268.817 65.3472C268.31 61.9525 268.057 58.8365 268.057 55.9992V44.4472H273.111V70.7432Z" fill="black"/>
<path d="M300.659 44.4472L300.051 48.8172H293.401V70.7432H287.815V48.8172H280.823V44.4472H300.659Z" fill="black"/>
<path d="M323.77 44.4472L323.162 48.5132H313.662V55.3532H321.946V59.3812H313.662V66.6392H323.846V70.7432H308.076V44.4472H323.77Z" fill="black"/>
<path d="M341.148 60.4452H338.298V70.7432H332.712V44.4472H340.92C344.442 44.4472 347.089 45.1058 348.862 46.4232C350.636 47.7152 351.522 49.6785 351.522 52.3132C351.522 54.0358 351.092 55.4545 350.23 56.5692C349.394 57.6838 348.09 58.6338 346.316 59.4192L353.118 70.7432H346.772L341.148 60.4452ZM338.298 56.4932H341.224C342.719 56.4932 343.846 56.1638 344.606 55.5052C345.366 54.8212 345.746 53.7572 345.746 52.3132C345.746 50.9705 345.341 49.9952 344.53 49.3872C343.745 48.7538 342.504 48.4372 340.806 48.4372H338.298V56.4932Z" fill="black"/>
<path d="M380.45 70.7432H373.268L364.908 49.8812C365.136 51.6798 365.314 53.3772 365.44 54.9732C365.592 56.5438 365.668 58.3932 365.668 60.5212V70.7432H360.614V44.4472H367.644L376.156 65.3472C375.65 61.9525 375.396 58.8365 375.396 55.9992V44.4472H380.45V70.7432Z" fill="black"/>
<path d="M404.465 70.7432L402.983 64.8532H394.737L393.255 70.7432H387.441L395.535 44.4472H402.337L410.393 70.7432H404.465ZM395.801 60.7112H401.919L398.841 48.5892L395.801 60.7112Z" fill="black"/>
<path d="M432.932 44.4472L432.324 48.8172H425.674V70.7432H420.088V48.8172H413.096V44.4472H432.932Z" fill="black"/>
<path d="M445.935 44.4472V70.7432H440.349V44.4472H445.935Z" fill="black"/>
<path d="M466.453 43.8392C468.859 43.8392 470.937 44.3838 472.685 45.4732C474.433 46.5372 475.775 48.0952 476.713 50.1472C477.65 52.1992 478.119 54.6818 478.119 57.5952C478.119 60.4578 477.65 62.9278 476.713 65.0052C475.775 67.0572 474.433 68.6278 472.685 69.7172C470.937 70.8065 468.859 71.3512 466.453 71.3512C464.046 71.3512 461.956 70.8192 460.183 69.7552C458.435 68.6658 457.092 67.0952 456.155 65.0432C455.217 62.9658 454.749 60.4832 454.749 57.5952C454.749 54.7578 455.217 52.3132 456.155 50.2612C457.117 48.1838 458.473 46.6005 460.221 45.5112C461.994 44.3965 464.071 43.8392 466.453 43.8392ZM466.453 48.0192C464.527 48.0192 463.071 48.7792 462.083 50.2992C461.12 51.8192 460.639 54.2512 460.639 57.5952C460.639 60.9392 461.133 63.3712 462.121 64.8912C463.109 66.4112 464.553 67.1712 466.453 67.1712C468.378 67.1712 469.822 66.4238 470.785 64.9292C471.747 63.4092 472.229 60.9645 472.229 57.5952C472.229 54.2258 471.747 51.7938 470.785 50.2992C469.822 48.7792 468.378 48.0192 466.453 48.0192Z" fill="black"/>
<path d="M506.748 70.7432H499.566L491.206 49.8812C491.434 51.6798 491.612 53.3772 491.738 54.9732C491.89 56.5438 491.966 58.3932 491.966 60.5212V70.7432H486.912V44.4472H493.942L502.454 65.3472C501.948 61.9525 501.694 58.8365 501.694 55.9992V44.4472H506.748V70.7432Z" fill="black"/>
<path d="M530.763 70.7432L529.281 64.8532H521.035L519.553 70.7432H513.739L521.833 44.4472H528.635L536.691 70.7432H530.763ZM522.099 60.7112H528.217L525.139 48.5892L522.099 60.7112Z" fill="black"/>
<path d="M549.267 44.4472V66.2592H559.679L559.071 70.7432H543.681V44.4472H549.267Z" fill="black"/>
<path d="M255.022 158.025C255.022 162.12 253.447 164.43 249.562 164.43C245.152 164.43 243.787 161.49 243.787 156.87V139.65H236.122V158.025C236.122 167.37 240.217 172.305 249.667 172.305C259.222 172.305 263.002 167.16 263.002 158.025V145.635C263.002 138.075 262.057 135.45 259.222 131.88C255.967 127.785 249.877 122.745 246.097 117.81C244.522 115.815 244.207 114.765 244.207 111.09V98.28C244.207 94.185 246.097 92.085 249.772 92.085C254.077 92.085 255.232 95.025 255.232 99.33V114.03H262.687V98.28C262.687 88.725 259.222 84 249.877 84C240.637 84 236.122 88.62 236.122 98.28V111.195C236.122 116.97 236.332 119.07 238.957 122.43C242.002 126.315 247.987 131.355 252.397 136.815C254.497 139.44 255.022 140.49 255.022 145.74V158.025Z" fill="black"/>
<path d="M292.672 114.975C292.672 120.33 290.467 122.535 285.847 122.535H280.282V93.03H285.742C290.782 93.03 292.672 95.445 292.672 100.59V114.975ZM280.282 171.36V130.305H285.847C295.927 130.305 300.547 125.685 300.547 114.765V100.59C300.547 89.67 295.822 84.945 285.742 84.945H272.302V171.36H280.282Z" fill="black"/>
<path d="M333.586 171.36L322.351 84.945H313.006L301.141 171.36H308.911L310.801 156.87H323.716L325.606 171.36H333.586ZM311.746 149.52C313.741 134.715 315.631 120.435 317.416 105.21C319.096 120.435 320.986 134.715 322.771 149.52H311.746Z" fill="black"/>
<path d="M358.503 157.605C358.503 162.225 357.033 164.43 353.148 164.43C349.368 164.43 347.478 162.12 347.478 157.605V98.805C347.478 94.29 349.368 92.085 353.148 92.085C357.243 92.085 358.503 94.185 358.503 98.805V114.03H365.748V98.7C365.748 88.935 361.548 84 353.148 84C344.013 84 339.393 88.935 339.393 98.91V157.71C339.393 167.475 344.013 172.305 353.148 172.305C361.968 172.305 365.748 167.58 365.748 157.5V139.65H358.503V157.605Z" fill="black"/>
<path d="M398.466 171.36V163.485H383.031V131.355H393.531V123.375H383.031V93.03H397.941V84.945H375.051V171.36H398.466Z" fill="black"/>
<path d="M453.905 171.36L442.67 84.945H433.325L421.46 171.36H429.23L431.12 156.87H444.035L445.925 171.36H453.905ZM432.065 149.52C434.06 134.715 435.95 120.435 437.735 105.21C439.415 120.435 441.305 134.715 443.09 149.52H432.065Z" fill="black"/>
<path d="M482.251 114.975C482.251 120.33 480.046 122.535 475.426 122.535H469.861V93.03H475.321C480.361 93.03 482.251 95.445 482.251 100.59V114.975ZM469.861 171.36V130.305H475.426C485.506 130.305 490.126 125.685 490.126 114.765V100.59C490.126 89.67 485.401 84.945 475.321 84.945H461.881V171.36H469.861Z" fill="black"/>
<path d="M518.714 114.975C518.714 120.33 516.509 122.535 511.889 122.535H506.324V93.03H511.784C516.824 93.03 518.714 95.445 518.714 100.59V114.975ZM506.324 171.36V130.305H511.889C521.969 130.305 526.589 125.685 526.589 114.765V100.59C526.589 89.67 521.864 84.945 511.784 84.945H498.344V171.36H506.324Z" fill="black"/>
<path d="M553.374 158.025C553.374 162.12 551.799 164.43 547.914 164.43C543.504 164.43 542.139 161.49 542.139 156.87V139.65H534.474V158.025C534.474 167.37 538.569 172.305 548.019 172.305C557.574 172.305 561.354 167.16 561.354 158.025V145.635C561.354 138.075 560.409 135.45 557.574 131.88C554.319 127.785 548.229 122.745 544.449 117.81C542.874 115.815 542.559 114.765 542.559 111.09V98.28C542.559 94.185 544.449 92.085 548.124 92.085C552.429 92.085 553.584 95.025 553.584 99.33V114.03H561.039V98.28C561.039 88.725 557.574 84 548.229 84C538.989 84 534.474 88.62 534.474 98.28V111.195C534.474 116.97 534.684 119.07 537.309 122.43C540.354 126.315 546.339 131.355 550.749 136.815C552.849 139.44 553.374 140.49 553.374 145.74V158.025Z" fill="black"/>
<path d="M248.018 185.292C250.956 185.219 253.814 186.249 256.03 188.178L253.071 191.709C252.367 191.149 251.587 190.69 250.756 190.346C249.975 190.035 249.141 189.881 248.3 189.891C247.465 189.874 246.64 190.071 245.902 190.462C245.163 190.853 244.537 191.426 244.082 192.126C243.075 193.624 242.57 195.929 242.566 199.04C242.562 202.151 243.067 204.428 244.082 205.873C244.553 206.575 245.194 207.145 245.946 207.53C246.698 207.914 247.536 208.101 248.38 208.071C249.282 208.086 250.176 207.906 251.002 207.543C251.899 207.095 252.751 206.561 253.544 205.947L256.319 209.514C255.278 210.549 254.054 211.382 252.709 211.97C251.252 212.618 249.673 212.942 248.079 212.922C245.859 212.975 243.667 212.423 241.737 211.326C239.894 210.212 238.427 208.571 237.525 206.616C236.478 204.239 235.971 201.66 236.039 199.064C235.976 196.502 236.504 193.96 237.58 191.635C238.506 189.684 239.983 188.047 241.829 186.926C243.703 185.824 245.844 185.259 248.018 185.292Z" fill="black"/>
<path d="M289.456 212.253V200.974H281.56V212.253H275.328V185.937H281.56V196.117H289.456V185.937H295.682V212.253H289.456Z" fill="black"/>
<path d="M330.686 212.253L329.323 206.592H321.654L320.322 212.253H313.868L321.801 185.937H329.359L337.292 212.253H330.686ZM322.704 202.073H328.23L325.454 190.456L322.704 202.073Z" fill="black"/>
<path d="M361.662 185.937V207.298H371.915L371.301 212.21H355.466V185.937H361.662Z" fill="black"/>
<path d="M397.341 185.937V207.298H407.588L406.974 212.21H391.115V185.937H397.341Z" fill="black"/>
<path d="M442.929 185.937L442.279 190.382H433.02V196.682H441.106V201.054H433.02V207.771H442.929V212.253H426.794V185.937H442.929Z" fill="black"/>
<path d="M483.262 212.253H475.33L467.735 191.862C467.986 193.864 468.177 195.632 468.306 197.179C468.435 198.726 468.533 200.507 468.533 202.607V212.253H463.007V185.937H470.749L478.535 206.365C477.995 203.117 477.715 199.832 477.7 196.541V185.937H483.281L483.262 212.253Z" fill="black"/>
<path d="M515.767 185.292C518.991 185.235 522.119 186.387 524.535 188.522L521.385 191.825C520.588 191.198 519.705 190.687 518.763 190.309C517.895 189.961 516.966 189.792 516.031 189.811C515.123 189.786 514.221 189.984 513.407 190.387C512.592 190.791 511.889 191.388 511.359 192.126C510.2 193.649 509.619 195.966 509.615 199.077C509.615 202.441 510.057 204.834 510.941 206.254C511.382 206.94 511.998 207.495 512.726 207.862C513.454 208.229 514.266 208.395 515.08 208.342C516.323 208.357 517.55 208.057 518.647 207.47V201.508H515.233L514.619 197.099H524.682V210.122C523.285 211.025 521.762 211.716 520.163 212.173C518.569 212.648 516.915 212.892 515.251 212.897C511.256 212.897 508.244 211.733 506.213 209.404C504.183 207.075 503.172 203.632 503.18 199.077C503.11 196.501 503.668 193.946 504.807 191.635C505.826 189.66 507.396 188.024 509.326 186.926C511.294 185.828 513.514 185.265 515.767 185.292Z" fill="black"/>
<path d="M561.19 185.937L560.576 190.382H551.281V196.682H559.373V201.054H551.281V207.771H561.19V212.253H545.055V185.937H561.19Z" fill="black"/>
<path fill-rule="evenodd" clip-rule="evenodd" d="M570.749 37.95H567.971V27.8025H572.88C573.595 27.8025 574.228 27.94 574.778 28.215C575.337 28.49 575.768 28.8796 576.07 29.3838C576.382 29.888 576.538 30.493 576.538 31.1988C576.538 31.9138 576.377 32.5234 576.056 33.0275C575.777 33.4586 575.404 33.8028 574.937 34.0601L576.813 37.9501H573.774L572.267 34.5538L570.749 34.5538V37.95ZM572.261 32.56H570.749V29.8513H572.275C572.678 29.8513 573.008 29.9613 573.265 30.1813C573.522 30.3921 573.65 30.7313 573.65 31.1988C573.65 31.648 573.522 31.9871 573.265 32.2163C573.008 32.4455 572.674 32.56 572.261 32.56Z" fill="black"/>
<path fill-rule="evenodd" clip-rule="evenodd" d="M567.724 43.1475C569.053 43.7158 570.478 44 572 44C573.522 44 574.947 43.7158 576.276 43.1475C577.605 42.5792 578.774 41.7908 579.782 40.7825C580.791 39.7742 581.579 38.6054 582.147 37.2762C582.716 35.9471 583 34.5217 583 33C583 31.4783 582.716 30.0529 582.147 28.7237C581.579 27.3946 580.791 26.2258 579.782 25.2175C578.774 24.2092 577.605 23.4208 576.276 22.8525C574.947 22.2842 573.522 22 572 22C570.478 22 569.053 22.2842 567.724 22.8525C566.395 23.4208 565.226 24.2092 564.217 25.2175C563.209 26.2258 562.421 27.3946 561.853 28.7237C561.284 30.0529 561 31.4783 561 33C561 34.5217 561.284 35.9471 561.853 37.2762C562.421 38.6054 563.209 39.7742 564.217 40.7825C565.226 41.7908 566.395 42.5792 567.724 43.1475ZM576.042 39.93C574.832 40.645 573.485 41.0025 572 41.0025C570.524 41.0025 569.181 40.645 567.971 39.93C566.761 39.2058 565.794 38.2387 565.07 37.0287C564.355 35.8187 563.998 34.4758 563.998 33C563.998 31.5242 564.355 30.1812 565.07 28.9712C565.794 27.7612 566.761 26.7988 567.971 26.0838C569.181 25.3596 570.524 24.9975 572 24.9975C573.476 24.9975 574.819 25.3596 576.029 26.0838C577.248 26.7988 578.215 27.7612 578.93 28.9712C579.654 30.1812 580.016 31.5242 580.016 33C580.016 34.4758 579.654 35.8187 578.93 37.0287C578.215 38.2387 577.252 39.2058 576.042 39.93Z" fill="black"/>
</g>
<defs>
<clipPath id="clip0_9256_70">
<rect width="592" height="221" fill="white"/>
</clipPath>
</defs>
</svg>
