<svg width="429" height="428" viewBox="0 0 429 428" fill="none" xmlns="http://www.w3.org/2000/svg">
<path d="M181.348 120.408H174.646L168.234 103.19C168.447 104.878 168.608 106.375 168.714 107.679C168.843 108.961 168.907 110.49 168.907 112.264V120.408H164.225V98.1874H170.767L177.34 115.438C176.87 112.51 176.635 109.752 176.635 107.166V98.1874H181.348V120.408Z" fill="#DB240B"/>
<path d="M205.207 120.408L204.053 115.631H197.576L196.453 120.408H191.002L197.704 98.1874H204.085L210.786 120.408H205.207ZM198.473 111.815H203.155L200.814 102.003L198.473 111.815Z" fill="#DB240B"/>
<path d="M227.583 97.6423C229.251 97.6423 230.694 97.8775 231.912 98.3478C233.152 98.818 234.274 99.5342 235.279 100.496L232.842 103.35C231.324 102.11 229.7 101.49 227.968 101.49C227.049 101.49 226.322 101.683 225.788 102.067C225.253 102.431 224.986 102.965 224.986 103.671C224.986 104.162 225.104 104.568 225.339 104.889C225.574 105.188 225.991 105.477 226.589 105.755C227.188 106.033 228.086 106.364 229.283 106.749C231.549 107.476 233.216 108.373 234.285 109.442C235.354 110.49 235.888 111.986 235.888 113.931C235.888 115.321 235.535 116.55 234.83 117.619C234.125 118.666 233.109 119.489 231.784 120.088C230.458 120.665 228.887 120.953 227.07 120.953C225.253 120.953 223.639 120.665 222.229 120.088C220.839 119.511 219.642 118.741 218.637 117.779L221.299 114.861C222.154 115.588 223.03 116.133 223.928 116.496C224.847 116.86 225.841 117.042 226.91 117.042C228 117.042 228.855 116.806 229.475 116.336C230.116 115.844 230.437 115.171 230.437 114.316C230.437 113.76 230.32 113.301 230.084 112.937C229.849 112.553 229.443 112.21 228.866 111.911C228.289 111.612 227.455 111.291 226.365 110.949C223.907 110.201 222.154 109.282 221.106 108.192C220.08 107.101 219.567 105.723 219.567 104.055C219.567 102.773 219.909 101.65 220.593 100.688C221.277 99.7052 222.229 98.957 223.447 98.444C224.665 97.9095 226.044 97.6423 227.583 97.6423Z" fill="#DB240B"/>
<path d="M258.346 120.408L257.191 115.631H250.714L249.592 120.408H244.141L250.843 98.1874H257.224L263.925 120.408H258.346ZM251.612 111.815H256.294L253.953 102.003L251.612 111.815Z" fill="#DB240B"/>
<path d="M58.2791 134.403V160.752H52.6818V134.403H58.2791Z" fill="black"/>
<path d="M88.3198 160.752H81.1232L72.7463 139.848C72.9748 141.65 73.1525 143.351 73.2794 144.95C73.4317 146.524 73.5078 148.377 73.5078 150.509V160.752H68.4436V134.403H75.4878L84.0171 155.345C83.5094 151.944 83.2556 148.821 83.2556 145.978V134.403H88.3198V160.752Z" fill="black"/>
<path d="M115.924 134.403L115.315 138.782H108.652V160.752H103.054V138.782H96.0483V134.403H115.924Z" fill="black"/>
<path d="M139.082 134.403L138.473 138.477H128.954V145.331H137.254V149.367H128.954V156.64H139.158V160.752H123.356V134.403H139.082Z" fill="black"/>
<path d="M156.496 150.433H153.64V160.752H148.042V134.403H156.267C159.796 134.403 162.448 135.063 164.225 136.383C166.002 137.677 166.891 139.645 166.891 142.285C166.891 144.011 166.459 145.432 165.596 146.549C164.758 147.666 163.451 148.618 161.674 149.405L168.49 160.752H162.131L156.496 150.433ZM153.64 146.473H156.572C158.069 146.473 159.199 146.143 159.961 145.483C160.722 144.798 161.103 143.732 161.103 142.285C161.103 140.939 160.697 139.962 159.884 139.353C159.097 138.718 157.854 138.401 156.153 138.401H153.64V146.473Z" fill="black"/>
<path d="M195.877 160.752H188.68L180.304 139.848C180.532 141.65 180.71 143.351 180.837 144.95C180.989 146.524 181.065 148.377 181.065 150.509V160.752H176.001V134.403H183.045L191.574 155.345C191.067 151.944 190.813 148.821 190.813 145.978V134.403H195.877V160.752Z" fill="black"/>
<path d="M219.941 160.752L218.456 154.85H210.193L208.708 160.752H202.882L210.992 134.403H217.808L225.881 160.752H219.941ZM211.259 150.7H217.389L214.305 138.553L211.259 150.7Z" fill="black"/>
<path d="M248.465 134.403L247.856 138.782H241.193V160.752H235.595V138.782H228.589V134.403H248.465Z" fill="black"/>
<path d="M261.494 134.403V160.752H255.897V134.403H261.494Z" fill="black"/>
<path d="M282.054 133.794C284.466 133.794 286.547 134.339 288.299 135.431C290.05 136.497 291.396 138.058 292.335 140.114C293.274 142.17 293.744 144.658 293.744 147.577C293.744 150.446 293.274 152.921 292.335 155.002C291.396 157.059 290.05 158.632 288.299 159.724C286.547 160.816 284.466 161.361 282.054 161.361C279.642 161.361 277.548 160.828 275.771 159.762C274.02 158.671 272.674 157.097 271.735 155.041C270.796 152.959 270.326 150.471 270.326 147.577C270.326 144.734 270.796 142.285 271.735 140.229C272.7 138.147 274.058 136.56 275.809 135.469C277.586 134.352 279.668 133.794 282.054 133.794ZM282.054 137.982C280.125 137.982 278.665 138.744 277.675 140.267C276.711 141.79 276.228 144.227 276.228 147.577C276.228 150.928 276.723 153.365 277.713 154.888C278.703 156.411 280.15 157.173 282.054 157.173C283.983 157.173 285.43 156.424 286.395 154.926C287.359 153.403 287.842 150.954 287.842 147.577C287.842 144.201 287.359 141.764 286.395 140.267C285.43 138.744 283.983 137.982 282.054 137.982Z" fill="black"/>
<path d="M322.431 160.752H315.235L306.858 139.848C307.086 141.65 307.264 143.351 307.391 144.95C307.543 146.524 307.619 148.377 307.619 150.509V160.752H302.555V134.403H309.599L318.128 155.345C317.621 151.944 317.367 148.821 317.367 145.978V134.403H322.431V160.752Z" fill="black"/>
<path d="M346.495 160.752L345.01 154.85H336.747L335.262 160.752H329.436L337.547 134.403H344.362L352.435 160.752H346.495ZM337.813 150.7H343.943L340.859 138.553L337.813 150.7Z" fill="black"/>
<path d="M365.036 134.403V156.259H375.469L374.86 160.752H359.438V134.403H365.036Z" fill="black"/>
<path d="M70.8733 247.678C70.8733 251.767 69.2988 254.073 65.4149 254.073C61.0062 254.073 59.6416 251.138 59.6416 246.525V229.332H51.9789V247.678C51.9789 257.009 56.0727 261.936 65.5199 261.936C75.072 261.936 78.8509 256.799 78.8509 247.678V235.307C78.8509 227.759 77.9062 225.138 75.072 221.574C71.818 217.485 65.7298 212.453 61.9509 207.525C60.3764 205.534 60.0615 204.485 60.0615 200.816V188.026C60.0615 183.937 61.9509 181.84 65.6248 181.84C69.9286 181.84 71.0832 184.776 71.0832 189.074V203.751H78.536V188.026C78.536 178.486 75.072 173.768 65.7298 173.768C56.4925 173.768 51.9789 178.381 51.9789 188.026V200.921C51.9789 206.687 52.1888 208.784 54.813 212.138C57.8571 216.017 63.8404 221.049 68.2491 226.501C70.3484 229.122 70.8733 230.17 70.8733 235.412V247.678Z" fill="black"/>
<path d="M108.512 204.695C108.512 210.042 106.308 212.243 101.689 212.243H96.1257V182.784H101.584C106.623 182.784 108.512 185.195 108.512 190.332V204.695ZM96.1257 260.992V220.001H101.689C111.766 220.001 116.385 215.388 116.385 204.485V190.332C116.385 179.429 111.661 174.711 101.584 174.711H88.1481V260.992H96.1257Z" fill="black"/>
<path d="M149.414 260.992L138.182 174.711H128.84L116.978 260.992H124.746L126.636 246.525H139.547L141.436 260.992H149.414ZM127.58 239.186C129.575 224.404 131.464 210.146 133.249 194.945C134.928 210.146 136.818 224.404 138.602 239.186H127.58Z" fill="black"/>
<path d="M174.324 247.259C174.324 251.872 172.855 254.073 168.971 254.073C165.192 254.073 163.302 251.767 163.302 247.259V188.55C163.302 184.042 165.192 181.84 168.971 181.84C173.065 181.84 174.324 183.937 174.324 188.55V203.751H181.567V188.445C181.567 178.695 177.368 173.768 168.971 173.768C159.839 173.768 155.22 178.695 155.22 188.655V247.364C155.22 257.113 159.839 261.936 168.971 261.936C177.788 261.936 181.567 257.218 181.567 247.154V229.332H174.324V247.259Z" fill="black"/>
<path d="M214.275 260.992V253.13H198.844V221.049H209.341V213.082H198.844V182.784H213.75V174.711H190.867V260.992H214.275Z" fill="black"/>
<path d="M269.698 260.992L258.466 174.711H249.124L237.262 260.992H245.03L246.919 246.525H259.83L261.72 260.992H269.698ZM247.864 239.186C249.858 224.404 251.748 210.146 253.532 194.945C255.212 210.146 257.101 224.404 258.886 239.186H247.864Z" fill="black"/>
<path d="M298.035 204.695C298.035 210.042 295.831 212.243 291.212 212.243H285.649V182.784H291.107C296.146 182.784 298.035 185.195 298.035 190.332V204.695ZM285.649 260.992V220.001H291.212C301.289 220.001 305.908 215.388 305.908 204.485V190.332C305.908 179.429 301.184 174.711 291.107 174.711H277.671V260.992H285.649Z" fill="black"/>
<path d="M334.487 204.695C334.487 210.042 332.283 212.243 327.664 212.243H322.101V182.784H327.559C332.598 182.784 334.487 185.195 334.487 190.332V204.695ZM322.101 260.992V220.001H327.664C337.741 220.001 342.36 215.388 342.36 204.485V190.332C342.36 179.429 337.636 174.711 327.559 174.711H314.123V260.992H322.101Z" fill="black"/>
<path d="M369.138 247.678C369.138 251.767 367.563 254.073 363.679 254.073C359.27 254.073 357.906 251.138 357.906 246.525V229.332H350.243V247.678C350.243 257.009 354.337 261.936 363.784 261.936C373.336 261.936 377.115 256.799 377.115 247.678V235.307C377.115 227.759 376.17 225.138 373.336 221.574C370.082 217.485 363.994 212.453 360.215 207.525C358.641 205.534 358.326 204.485 358.326 200.816V188.026C358.326 183.937 360.215 181.84 363.889 181.84C368.193 181.84 369.347 184.776 369.347 189.074V203.751H376.8V188.026C376.8 178.486 373.336 173.768 363.994 173.768C354.757 173.768 350.243 178.381 350.243 188.026V200.921C350.243 206.687 350.453 208.784 353.077 212.138C356.121 216.017 362.105 221.049 366.513 226.501C368.613 229.122 369.138 230.17 369.138 235.412V247.678Z" fill="black"/>
<path d="M63.1762 275.161C66.1198 275.087 68.9841 276.119 71.2051 278.052L68.2396 281.59C67.5337 281.029 66.753 280.569 65.9202 280.224C65.1375 279.913 64.3014 279.758 63.4592 279.769C62.6224 279.752 61.7951 279.949 61.0556 280.341C60.316 280.732 59.6885 281.306 59.2326 282.008C58.2236 283.51 57.717 285.819 57.7129 288.936C57.7088 292.053 58.2154 294.336 59.2326 295.783C59.7039 296.486 60.3468 297.058 61.1003 297.443C61.8539 297.829 62.6933 298.015 63.5392 297.986C64.4428 298.001 65.3388 297.82 66.1663 297.457C67.0654 297.008 67.9185 296.472 68.7134 295.857L71.4942 299.432C70.4507 300.468 69.2241 301.303 67.8766 301.893C66.4172 302.541 64.8347 302.867 63.2378 302.846C61.0134 302.899 58.8166 302.346 56.8824 301.247C55.0359 300.131 53.5659 298.487 52.6619 296.528C51.6134 294.146 51.105 291.562 51.173 288.96C51.1104 286.393 51.6388 283.846 52.7172 281.516C53.6448 279.561 55.1249 277.92 56.9747 276.797C58.8527 275.694 60.9981 275.127 63.1762 275.161Z" fill="black"/>
<path d="M104.698 302.176V290.874H96.7865V302.176H90.5419V275.807H96.7865V286.007H104.698V275.807H110.937V302.176H104.698Z" fill="black"/>
<path d="M146.012 302.176L144.646 296.503H136.962L135.626 302.176H129.16L137.109 275.807H144.683L152.632 302.176H146.012ZM138.014 291.975H143.551L140.77 280.335L138.014 291.975Z" fill="black"/>
<path d="M177.05 275.807V297.211H187.325L186.709 302.133H170.843V275.807H177.05Z" fill="black"/>
<path d="M212.802 275.807V297.211H223.07L222.455 302.133H206.563V275.807H212.802Z" fill="black"/>
<path d="M258.483 275.807L257.831 280.261H248.553V286.573H256.656V290.954H248.553V297.684H258.483V302.176H242.314V275.807H258.483Z" fill="black"/>
<path d="M298.898 302.176H290.949L283.338 281.744C283.591 283.749 283.781 285.521 283.911 287.072C284.04 288.622 284.138 290.406 284.138 292.51V302.176H278.601V275.807H286.359L294.16 296.276C293.619 293.022 293.339 289.73 293.324 286.432V275.807H298.916L298.898 302.176Z" fill="black"/>
<path d="M331.468 275.161C334.698 275.103 337.833 276.258 340.254 278.397L337.098 281.707C336.299 281.078 335.414 280.566 334.471 280.187C333.601 279.839 332.67 279.67 331.733 279.689C330.822 279.663 329.919 279.862 329.103 280.266C328.287 280.67 327.582 281.269 327.051 282.008C325.89 283.534 325.308 285.856 325.304 288.973C325.304 292.344 325.747 294.742 326.633 296.165C327.074 296.852 327.692 297.408 328.421 297.776C329.15 298.144 329.964 298.31 330.779 298.257C332.025 298.272 333.255 297.971 334.354 297.383V291.409H330.933L330.318 286.992H340.402V300.041C339.002 300.945 337.476 301.638 335.873 302.096C334.276 302.572 332.618 302.817 330.951 302.822C326.948 302.822 323.93 301.655 321.895 299.321C319.861 296.987 318.848 293.538 318.856 288.973C318.785 286.392 319.345 283.832 320.486 281.516C321.507 279.538 323.08 277.898 325.014 276.797C326.986 275.697 329.211 275.133 331.468 275.161Z" fill="black"/>
<path d="M376.984 275.807L376.368 280.261H367.054V286.573H375.163V290.954H367.054V297.684H376.984V302.176H360.815V275.807H376.984Z" fill="black"/>
<path fill-rule="evenodd" clip-rule="evenodd" d="M411.964 81.0306C412.809 82.7222 412.123 84.7788 410.431 85.624L344.836 118.4C343.145 119.246 341.088 118.559 340.243 116.868C339.398 115.176 340.084 113.12 341.775 112.274L407.37 79.4982C409.062 78.6529 411.119 79.339 411.964 81.0306Z" fill="black"/>
<path fill-rule="evenodd" clip-rule="evenodd" d="M332.186 71.63C320.339 71.63 310.735 81.2341 310.735 93.0814C310.735 104.929 320.339 114.533 332.186 114.533C344.034 114.533 353.638 104.929 353.638 93.0814C353.638 81.2341 344.034 71.63 332.186 71.63ZM303.887 93.0814C303.887 77.4521 316.557 64.782 332.186 64.782C347.816 64.782 360.486 77.4521 360.486 93.0814C360.486 108.711 347.816 121.381 332.186 121.381C316.557 121.381 303.887 108.711 303.887 93.0814Z" fill="black"/>
<path fill-rule="evenodd" clip-rule="evenodd" d="M344.237 13.3037C345.929 14.149 346.615 16.2055 345.769 17.8971L312.993 83.4924C312.148 85.184 310.091 85.8701 308.4 85.0248C306.708 84.1796 306.022 82.1231 306.867 80.4315L339.644 14.8362C340.489 13.1446 342.545 12.4585 344.237 13.3037Z" fill="black"/>
<path fill-rule="evenodd" clip-rule="evenodd" d="M353.81 41.4082C355.401 42.4299 355.863 44.5481 354.841 46.1394L339.253 70.4155C338.232 72.0068 336.113 72.4684 334.522 71.4467C332.931 70.425 332.469 68.3067 333.491 66.7155L349.079 42.4393C350.1 40.8481 352.219 40.3864 353.81 41.4082Z" fill="black"/>
<path fill-rule="evenodd" clip-rule="evenodd" d="M411.964 81.0306C412.809 82.7222 412.123 84.7788 410.431 85.624L344.836 118.4C343.145 119.246 341.088 118.559 340.243 116.868C339.398 115.176 340.084 113.12 341.775 112.274L407.37 79.4982C409.062 78.6529 411.119 79.339 411.964 81.0306Z" fill="black"/>
<path fill-rule="evenodd" clip-rule="evenodd" d="M383.86 71.4585C384.881 73.05 384.419 75.1681 382.828 76.1894L358.551 91.7686C356.96 92.79 354.842 92.3278 353.82 90.7363C352.799 89.1448 353.261 87.0267 354.853 86.0053L379.129 70.4261C380.72 69.4048 382.839 69.867 383.86 71.4585Z" fill="black"/>
<path fill-rule="evenodd" clip-rule="evenodd" d="M375.533 49.7349C376.87 51.0721 376.87 53.24 375.533 54.5772L352.198 77.9118C350.861 79.2489 348.693 79.2489 347.356 77.9118C346.019 76.5746 346.019 74.4066 347.356 73.0695L370.691 49.7349C372.028 48.3978 374.196 48.3978 375.533 49.7349Z" fill="black"/>
<path fill-rule="evenodd" clip-rule="evenodd" d="M76.4032 319.198C77.871 318.006 80.0274 318.229 81.2197 319.697C96.9291 339.037 116.754 354.63 139.252 365.34C161.749 376.049 186.351 381.607 211.268 381.607C236.184 381.607 260.787 376.049 283.284 365.34C305.781 354.63 325.606 339.037 341.316 319.697C342.508 318.229 344.664 318.006 346.132 319.198C347.6 320.391 347.823 322.547 346.631 324.015C330.279 344.145 309.644 360.375 286.227 371.523C262.811 382.67 237.202 388.455 211.268 388.455C185.333 388.455 159.725 382.67 136.308 371.523C112.891 360.375 92.2558 344.145 75.9043 324.015C74.712 322.547 74.9354 320.391 76.4032 319.198Z" fill="black"/>
<path fill-rule="evenodd" clip-rule="evenodd" d="M186.101 41.3944C231.832 34.725 278.342 46.4773 315.416 74.0707C316.933 75.1997 317.247 77.3447 316.118 78.8617C314.989 80.3787 312.844 80.6932 311.327 79.5641C275.709 53.0541 231.025 41.7632 187.089 48.1708C143.153 54.5784 103.555 78.1607 76.9914 113.739C75.8601 115.255 73.7146 115.566 72.1993 114.434C70.6841 113.303 70.3728 111.158 71.5041 109.642C99.1532 72.6099 140.369 48.0639 186.101 41.3944Z" fill="black"/>
<path fill-rule="evenodd" clip-rule="evenodd" d="M367.749 368.95H364.971V358.803H369.88C370.595 358.803 371.228 358.94 371.778 359.215C372.337 359.49 372.768 359.88 373.07 360.384C373.382 360.888 373.538 361.493 373.538 362.199C373.538 362.914 373.377 363.523 373.056 364.028C372.777 364.459 372.404 364.803 371.937 365.06L373.813 368.95H370.774L369.267 365.554L367.749 365.554V368.95ZM369.261 363.56H367.749V360.851H369.275C369.678 360.851 370.008 360.961 370.265 361.181C370.522 361.392 370.65 361.731 370.65 362.199C370.65 362.648 370.522 362.987 370.265 363.216C370.008 363.445 369.674 363.56 369.261 363.56Z" fill="black"/>
<path fill-rule="evenodd" clip-rule="evenodd" d="M364.724 374.147C366.053 374.716 367.478 375 369 375C370.522 375 371.947 374.716 373.276 374.147C374.605 373.579 375.774 372.791 376.782 371.782C377.791 370.774 378.579 369.605 379.147 368.276C379.716 366.947 380 365.522 380 364C380 362.478 379.716 361.053 379.147 359.724C378.579 358.395 377.791 357.226 376.782 356.217C375.774 355.209 374.605 354.421 373.276 353.853C371.947 353.284 370.522 353 369 353C367.478 353 366.053 353.284 364.724 353.853C363.395 354.421 362.226 355.209 361.217 356.217C360.209 357.226 359.421 358.395 358.853 359.724C358.284 361.053 358 362.478 358 364C358 365.522 358.284 366.947 358.853 368.276C359.421 369.605 360.209 370.774 361.217 371.782C362.226 372.791 363.395 373.579 364.724 374.147ZM373.042 370.93C371.832 371.645 370.485 372.002 369 372.002C367.524 372.002 366.181 371.645 364.971 370.93C363.761 370.206 362.794 369.239 362.07 368.029C361.355 366.819 360.998 365.476 360.998 364C360.998 362.524 361.355 361.181 362.07 359.971C362.794 358.761 363.761 357.799 364.971 357.084C366.181 356.36 367.524 355.997 369 355.997C370.476 355.997 371.819 356.36 373.029 357.084C374.248 357.799 375.215 358.761 375.93 359.971C376.654 361.181 377.016 362.524 377.016 364C377.016 365.476 376.654 366.819 375.93 368.029C375.215 369.239 374.252 370.206 373.042 370.93Z" fill="black"/>
</svg>
